<svg aria-hidden="true" style="position: absolute; width: 0; height: 0; overflow: hidden;" version="1.1" xmlns="http://www.w3.org/2000/svg" xmlns:xlink="http://www.w3.org/1999/xlink">
<defs>
<symbol id="icon-google" viewBox="0 0 32 32">
<path fill="#ffc107" style="fill: var(--color1, #ffc107)" d="M29.074 13.389h-1.074v-0.055h-12v5.333h7.535c-1.099 3.105-4.053 5.333-7.535 5.333-4.418 0-8-3.582-8-8s3.582-8 8-8c2.039 0 3.895 0.769 5.307 2.026l3.771-3.771c-2.381-2.219-5.567-3.588-9.079-3.588-7.363 0-13.333 5.97-13.333 13.333s5.97 13.333 13.333 13.333c7.363 0 13.333-5.97 13.333-13.333 0-0.894-0.092-1.767-0.259-2.611z"></path>
<path fill="#ff3d00" style="fill: var(--color2, #ff3d00)" d="M4.204 9.794l4.381 3.213c1.185-2.935 4.056-5.007 7.415-5.007 2.039 0 3.895 0.769 5.307 2.026l3.771-3.771c-2.381-2.219-5.567-3.588-9.079-3.588-5.121 0-9.563 2.891-11.796 7.127z"></path>
<path fill="#4caf50" style="fill: var(--color3, #4caf50)" d="M16 29.333c3.444 0 6.573-1.318 8.939-3.461l-4.127-3.492c-1.383 1.053-3.074 1.622-4.813 1.62-3.468 0-6.413-2.211-7.522-5.297l-4.348 3.35c2.207 4.318 6.688 7.281 11.87 7.281z"></path>
<path fill="#1976d2" style="fill: var(--color4, #1976d2)" d="M29.074 13.389h-1.074v-0.055h-12v5.333h7.535c-0.526 1.478-1.473 2.769-2.725 3.714l0.002-0.001 4.127 3.492c-0.292 0.265 4.394-3.205 4.394-9.871 0-0.894-0.092-1.767-0.259-2.611z"></path>
</symbol>
<symbol id="icon-info" viewBox="0 0 24 24">
<path d="M23 12c0-3.037-1.232-5.789-3.222-7.778s-4.741-3.222-7.778-3.222-5.789 1.232-7.778 3.222-3.222 4.741-3.222 7.778 1.232 5.789 3.222 7.778 4.741 3.222 7.778 3.222 5.789-1.232 7.778-3.222 3.222-4.741 3.222-7.778zM21 12c0 2.486-1.006 4.734-2.636 6.364s-3.878 2.636-6.364 2.636-4.734-1.006-6.364-2.636-2.636-3.878-2.636-6.364 1.006-4.734 2.636-6.364 3.878-2.636 6.364-2.636 4.734 1.006 6.364 2.636 2.636 3.878 2.636 6.364zM13 16v-4c0-0.552-0.448-1-1-1s-1 0.448-1 1v4c0 0.552 0.448 1 1 1s1-0.448 1-1zM12 9c0.552 0 1-0.448 1-1s-0.448-1-1-1-1 0.448-1 1 0.448 1 1 1z"></path>
</symbol>
<symbol id="icon-menu" viewBox="0 0 46 32">
<path fill="none" stroke="#244a5b" style="stroke: var(--color1, #244a5b)" stroke-linejoin="round" stroke-linecap="round" stroke-miterlimit="4" stroke-width="3.5556" d="M1.778 1.778h42.667M1.778 16h42.667M1.778 30.222h42.667"></path>
</symbol>
<symbol id="icon-chevron-down" viewBox="0 0 51 32">
<path fill="#244a5b" style="fill: var(--color1, #244a5b)" d="M0 4.824l4.544-4.824 21.056 22.352 21.056-22.352 4.544 4.824-25.6 27.176-25.6-27.176z"></path>
</symbol>
<symbol id="icon-chevron-left" viewBox="0 0 20 32">
<path fill="#244a5b" style="fill: var(--color1, #244a5b)" d="M16.985 0l3.015 2.84-13.97 13.16 13.97 13.16-3.015 2.84-16.985-16 16.985-16z"></path>
</symbol>
<symbol id="icon-chevron-right" viewBox="0 0 20 32">
<path fill="#244a5b" style="fill: var(--color1, #244a5b)" d="M3.015 32l-3.015-2.84 13.97-13.16-13.97-13.16 3.015-2.84 16.985 16-16.985 16z"></path>
</symbol>
<symbol id="icon-chevron-up" viewBox="0 0 51 32">
<path fill="#244a5b" style="fill: var(--color1, #244a5b)" d="M51.2 27.176l-4.544 4.824-21.056-22.352-21.056 22.352-4.544-4.824 25.6-27.176 25.6 27.176z"></path>
</symbol>
<symbol id="icon-id" viewBox="0 0 40 32">
<path fill="#244a5b" style="fill: var(--color1, #244a5b)" d="M0 4.526c0-2.497 2.014-4.526 4.491-4.526h31.439c2.477 0 4.491 2.030 4.491 4.526h-40.421zM0 7.921h40.421v19.237c0 2.497-2.014 4.526-4.491 4.526h-31.439c-2.477 0-4.491-2.030-4.491-4.526v-19.237zM17.354 27.158c1.418 0 2.477-1.372 1.572-2.475-1.032-1.252-2.589-2.051-4.33-2.051h-4.491c-1.74 0-3.298 0.799-4.33 2.051-0.905 1.103 0.154 2.475 1.572 2.475h10.007zM12.351 19.803c1.042 0 2.042-0.417 2.779-1.16s1.151-1.75 1.151-2.8c0-1.050-0.414-2.058-1.151-2.8s-1.737-1.16-2.779-1.16c-1.042 0-2.042 0.417-2.779 1.16s-1.151 1.75-1.151 2.8 0.414 2.058 1.151 2.8c0.737 0.743 1.737 1.16 2.779 1.16zM25.263 12.447c-0.933 0-1.684 0.757-1.684 1.697s0.751 1.697 1.684 1.697h7.86c0.933 0 1.684-0.757 1.684-1.697s-0.751-1.697-1.684-1.697h-7.86zM25.263 19.237c-0.933 0-1.684 0.757-1.684 1.697s0.751 1.697 1.684 1.697h7.86c0.933 0 1.684-0.757 1.684-1.697s-0.751-1.697-1.684-1.697h-7.86z"></path>
</symbol>
<symbol id="icon-search" viewBox="0 0 32 32">
<path fill="#fff" style="fill: var(--color2, #fff)" d="M21.001 23.307c-2.615 2.032-5.906 2.991-9.203 2.681s-6.352-1.866-8.543-4.35c-2.191-2.484-3.353-5.711-3.249-9.022s1.464-6.459 3.806-8.802c2.342-2.343 5.487-3.704 8.797-3.808s6.535 1.059 9.018 3.251c2.483 2.192 4.038 5.248 4.348 8.547s-0.648 6.591-2.68 9.208l8.705 8.676-2.31 2.312-8.672-8.693h-0.016zM13.029 22.786c1.282 0 2.551-0.253 3.736-0.744s2.261-1.21 3.167-2.117c0.907-0.907 1.626-1.984 2.116-3.169s0.743-2.455 0.743-3.738-0.252-2.553-0.743-3.738c-0.491-1.185-1.21-2.262-2.116-3.169s-1.983-1.626-3.167-2.117c-1.184-0.491-2.454-0.743-3.736-0.743-2.589 0-5.072 1.029-6.903 2.861s-2.859 4.316-2.859 6.906c0 2.59 1.028 5.075 2.859 6.906s4.314 2.861 6.903 2.861z"></path>
</symbol>
<symbol id="icon-gray-quotes" viewBox="0 0 43 32">
<path fill="#f0f0f0" style="fill: var(--color3, #f0f0f0)" d="M0 0.667c0-0.368 0.298-0.667 0.667-0.667h17.793c0.368 0 0.667 0.298 0.667 0.667v18.068c0 0.114-0.029 0.227-0.085 0.327l-7.080 12.599c-0.118 0.21-0.34 0.34-0.581 0.34h-7.298c-0.51 0-0.831-0.549-0.581-0.993l6.24-11.104c0.25-0.444-0.071-0.993-0.581-0.993h-8.493c-0.368 0-0.667-0.298-0.667-0.667v-17.576z"></path>
<path fill="#f0f0f0" style="fill: var(--color3, #f0f0f0)" d="M23.126 0.667c0-0.368 0.298-0.667 0.667-0.667h17.793c0.368 0 0.667 0.298 0.667 0.667v18.068c0 0.114-0.029 0.227-0.085 0.327l-7.080 12.599c-0.118 0.21-0.34 0.34-0.581 0.34h-7.298c-0.51 0-0.831-0.549-0.581-0.993l6.24-11.104c0.25-0.444-0.071-0.993-0.581-0.993h-8.493c-0.368 0-0.667-0.298-0.667-0.667v-17.576z"></path>
</symbol>
<symbol id="icon-blue-quotes" viewBox="0 0 43 32">
<path fill="#244a5b" style="fill: var(--color1, #244a5b)" d="M0 0.667c0-0.368 0.298-0.667 0.667-0.667h17.793c0.368 0 0.667 0.298 0.667 0.667v18.068c0 0.114-0.029 0.227-0.085 0.327l-7.080 12.599c-0.118 0.21-0.34 0.34-0.581 0.34h-7.298c-0.51 0-0.831-0.549-0.581-0.993l6.24-11.104c0.25-0.444-0.071-0.993-0.581-0.993h-8.493c-0.368 0-0.667-0.298-0.667-0.667v-17.576z"></path>
<path fill="#244a5b" style="fill: var(--color1, #244a5b)" d="M23.126 0.667c0-0.368 0.298-0.667 0.667-0.667h17.793c0.368 0 0.667 0.298 0.667 0.667v18.068c0 0.114-0.029 0.227-0.085 0.327l-7.080 12.599c-0.118 0.21-0.34 0.34-0.581 0.34h-7.298c-0.51 0-0.831-0.549-0.581-0.993l6.24-11.104c0.25-0.444-0.071-0.993-0.581-0.993h-8.493c-0.368 0-0.667-0.298-0.667-0.667v-17.576z"></path>
</symbol>
<symbol id="icon-star" viewBox="0 0 34 32">
<path fill="#ffc400" style="fill: var(--color4, #ffc400)" d="M14.908 1.228c0.532-1.638 2.849-1.638 3.382 0l2.7 8.309c0.238 0.732 0.921 1.228 1.691 1.228h8.737c1.722 0 2.438 2.204 1.045 3.216l-7.068 5.135c-0.623 0.453-0.884 1.255-0.646 1.988l2.7 8.309c0.532 1.638-1.342 3-2.736 1.988l-7.068-5.135c-0.623-0.453-1.467-0.453-2.090 0l-7.068 5.135c-1.393 1.012-3.268-0.35-2.736-1.988l2.7-8.309c0.238-0.732-0.023-1.535-0.646-1.988l-7.068-5.135c-1.393-1.012-0.677-3.216 1.045-3.216h8.736c0.77 0 1.453-0.496 1.691-1.228l2.7-8.309z"></path>
</symbol>
<symbol id="icon-arrow" viewBox="0 0 32 32">
<path fill="#244a5b" style="fill: var(--color1, #244a5b)" d="M24.35 18h-24.35v-4h24.35l-11.2-11.2 2.85-2.8 16 16-16 16-2.85-2.8 11.2-11.2z"></path>
</symbol>
<symbol id="icon-user-check" viewBox="0 0 32 32">
<path d="M30 19l-9 9-3-3-2 2 5 5 11-11z"></path>
<path d="M14 24h10v-3.598c-2.101-1.225-4.885-2.066-8-2.321v-1.649c2.203-1.242 4-4.337 4-7.432 0-4.971 0-9-6-9s-6 4.029-6 9c0 3.096 1.797 6.191 4 7.432v1.649c-6.784 0.555-12 3.888-12 7.918h14v-2z"></path>
</symbol>
<symbol id="icon-facebook" viewBox="0 0 32 32">
<path d="M29 0h-26c-1.65 0-3 1.35-3 3v26c0 1.65 1.35 3 3 3h13v-14h-4v-4h4v-2c0-3.306 2.694-6 6-6h4v4h-4c-1.1 0-2 0.9-2 2v2h6l-1 4h-5v14h9c1.65 0 3-1.35 3-3v-26c0-1.65-1.35-3-3-3z"></path>
</symbol>
<symbol id="icon-instagram" viewBox="0 0 32 32">
<path d="M16 2.881c4.275 0 4.781 0.019 6.462 0.094 1.563 0.069 2.406 0.331 2.969 0.55 0.744 0.288 1.281 0.638 1.837 1.194 0.563 0.563 0.906 1.094 1.2 1.838 0.219 0.563 0.481 1.412 0.55 2.969 0.075 1.688 0.094 2.194 0.094 6.463s-0.019 4.781-0.094 6.463c-0.069 1.563-0.331 2.406-0.55 2.969-0.288 0.744-0.637 1.281-1.194 1.837-0.563 0.563-1.094 0.906-1.837 1.2-0.563 0.219-1.413 0.481-2.969 0.55-1.688 0.075-2.194 0.094-6.463 0.094s-4.781-0.019-6.463-0.094c-1.563-0.069-2.406-0.331-2.969-0.55-0.744-0.288-1.281-0.637-1.838-1.194-0.563-0.563-0.906-1.094-1.2-1.837-0.219-0.563-0.481-1.413-0.55-2.969-0.075-1.688-0.094-2.194-0.094-6.463s0.019-4.781 0.094-6.463c0.069-1.563 0.331-2.406 0.55-2.969 0.288-0.744 0.638-1.281 1.194-1.838 0.563-0.563 1.094-0.906 1.838-1.2 0.563-0.219 1.412-0.481 2.969-0.55 1.681-0.075 2.188-0.094 6.463-0.094zM16 0c-4.344 0-4.887 0.019-6.594 0.094-1.7 0.075-2.869 0.35-3.881 0.744-1.056 0.412-1.95 0.956-2.837 1.85-0.894 0.888-1.438 1.781-1.85 2.831-0.394 1.019-0.669 2.181-0.744 3.881-0.075 1.713-0.094 2.256-0.094 6.6s0.019 4.887 0.094 6.594c0.075 1.7 0.35 2.869 0.744 3.881 0.413 1.056 0.956 1.95 1.85 2.837 0.887 0.887 1.781 1.438 2.831 1.844 1.019 0.394 2.181 0.669 3.881 0.744 1.706 0.075 2.25 0.094 6.594 0.094s4.888-0.019 6.594-0.094c1.7-0.075 2.869-0.35 3.881-0.744 1.050-0.406 1.944-0.956 2.831-1.844s1.438-1.781 1.844-2.831c0.394-1.019 0.669-2.181 0.744-3.881 0.075-1.706 0.094-2.25 0.094-6.594s-0.019-4.887-0.094-6.594c-0.075-1.7-0.35-2.869-0.744-3.881-0.394-1.063-0.938-1.956-1.831-2.844-0.887-0.887-1.781-1.438-2.831-1.844-1.019-0.394-2.181-0.669-3.881-0.744-1.712-0.081-2.256-0.1-6.6-0.1v0z"></path>
<path d="M16 7.781c-4.537 0-8.219 3.681-8.219 8.219s3.681 8.219 8.219 8.219 8.219-3.681 8.219-8.219c0-4.537-3.681-8.219-8.219-8.219zM16 21.331c-2.944 0-5.331-2.387-5.331-5.331s2.387-5.331 5.331-5.331c2.944 0 5.331 2.387 5.331 5.331s-2.387 5.331-5.331 5.331z"></path>
<path d="M26.462 7.456c0 1.060-0.859 1.919-1.919 1.919s-1.919-0.859-1.919-1.919c0-1.060 0.859-1.919 1.919-1.919s1.919 0.859 1.919 1.919z"></path>
</symbol>
<symbol id="icon-whatsapp" viewBox="0 0 32 32">
<path d="M27.281 4.65c-2.994-3-6.975-4.65-11.219-4.65-8.738 0-15.85 7.112-15.85 15.856 0 2.794 0.731 5.525 2.119 7.925l-2.25 8.219 8.406-2.206c2.319 1.262 4.925 1.931 7.575 1.931h0.006c0 0 0 0 0 0 8.738 0 15.856-7.113 15.856-15.856 0-4.238-1.65-8.219-4.644-11.219zM16.069 29.050v0c-2.369 0-4.688-0.637-6.713-1.837l-0.481-0.288-4.987 1.306 1.331-4.863-0.313-0.5c-1.325-2.094-2.019-4.519-2.019-7.012 0-7.269 5.912-13.181 13.188-13.181 3.519 0 6.831 1.375 9.319 3.862 2.488 2.494 3.856 5.8 3.856 9.325-0.006 7.275-5.919 13.188-13.181 13.188zM23.294 19.175c-0.394-0.2-2.344-1.156-2.706-1.288s-0.625-0.2-0.894 0.2c-0.262 0.394-1.025 1.288-1.256 1.556-0.231 0.262-0.462 0.3-0.856 0.1s-1.675-0.619-3.188-1.969c-1.175-1.050-1.975-2.35-2.206-2.744s-0.025-0.613 0.175-0.806c0.181-0.175 0.394-0.463 0.594-0.694s0.262-0.394 0.394-0.662c0.131-0.262 0.069-0.494-0.031-0.694s-0.894-2.15-1.219-2.944c-0.319-0.775-0.65-0.669-0.894-0.681-0.231-0.012-0.494-0.012-0.756-0.012s-0.694 0.1-1.056 0.494c-0.363 0.394-1.387 1.356-1.387 3.306s1.419 3.831 1.619 4.1c0.2 0.262 2.794 4.269 6.769 5.981 0.944 0.406 1.681 0.65 2.256 0.837 0.95 0.3 1.813 0.256 2.494 0.156 0.762-0.113 2.344-0.956 2.675-1.881s0.331-1.719 0.231-1.881c-0.094-0.175-0.356-0.275-0.756-0.475z"></path>
</symbol>
<symbol id="icon-shield-off" viewBox="0 0 24 24">
<path d="M20.645 14.296c0.241-0.776 0.358-1.567 0.355-2.3v-6.996c0-0.426-0.267-0.79-0.649-0.936l-8-3c-0.236-0.088-0.484-0.082-0.701 0l-3.16 1.18c-0.517 0.192-0.78 0.768-0.587 1.286s0.769 0.78 1.287 0.587l2.809-1.049 7.001 2.625v6.311c0.002 0.522-0.082 1.111-0.265 1.7-0.164 0.527 0.131 1.088 0.659 1.251s1.088-0.131 1.251-0.659zM5 6.414l11.231 11.231c-1.189 1.207-2.63 2.314-4.262 3.199-1.209-0.69-4.402-2.702-6.019-5.531-0.079-0.138-0.153-0.276-0.223-0.417-0.456-0.911-0.727-1.878-0.727-2.896zM0.293 1.707l2.824 2.825c-0.075 0.142-0.116 0.302-0.117 0.468v7c0 1.382 0.369 2.655 0.938 3.791 0.087 0.175 0.179 0.346 0.276 0.515 2.351 4.114 7.34 6.589 7.34 6.589 0.298 0.149 0.636 0.135 0.914-0.010 1.985-1.047 3.74-2.366 5.178-3.825l4.648 4.648c0.391 0.391 1.024 0.391 1.414 0s0.391-1.024 0-1.414l-22.001-22.001c-0.391-0.391-1.024-0.391-1.414 0s-0.391 1.024 0 1.414z"></path>
</symbol>
<symbol id="icon-shield" viewBox="0 0 24 24">
<path d="M12 20.862c-1.184-0.672-4.42-2.695-6.050-5.549-0.079-0.138-0.153-0.276-0.223-0.417-0.456-0.911-0.727-1.878-0.727-2.896v-6.307l7-2.625 7 2.625v6.307c0 1.018-0.271 1.985-0.726 2.897-0.070 0.14-0.145 0.279-0.223 0.417-1.631 2.854-4.867 4.876-6.050 5.549zM12.447 22.894c0 0 4.989-2.475 7.34-6.589 0.096-0.168 0.188-0.34 0.276-0.515 0.568-1.135 0.937-2.408 0.937-3.79v-7c0-0.426-0.267-0.79-0.649-0.936l-8-3c-0.236-0.089-0.485-0.082-0.702 0l-8 3c-0.399 0.149-0.646 0.527-0.649 0.936v7c0 1.382 0.369 2.655 0.938 3.791 0.087 0.175 0.179 0.346 0.276 0.515 2.351 4.114 7.34 6.589 7.34 6.589 0.292 0.146 0.62 0.136 0.894 0z"></path>
</symbol>
<symbol id="icon-filter" viewBox="0 0 24 24">
<path d="M19.845 4l-6.609 7.814c-0.147 0.173-0.236 0.399-0.236 0.646v6.922l-2-1v-5.922c0.001-0.227-0.077-0.457-0.236-0.646l-6.609-7.814zM22 2h-20c-0.552 0-1 0.448-1 1 0 0.247 0.089 0.473 0.236 0.646l7.764 9.18v6.174c0 0.389 0.222 0.727 0.553 0.894l4 2c0.494 0.247 1.095 0.047 1.342-0.447 0.072-0.146 0.106-0.301 0.105-0.447v-8.174l7.764-9.18c0.357-0.422 0.304-1.053-0.118-1.409-0.189-0.16-0.419-0.238-0.646-0.237z"></path>
</symbol>
<symbol id="icon-car" viewBox="0 0 32 32">
<path fill="#244a5b" style="fill: var(--color1, #244a5b)" opacity="0.88" d="M4.874 13.269c-2.383-1.294-2.109-2.736 0.284-2.585l0.536 1.073 1.105-3.67c0.434-1.444 1.157-2.754 2.574-2.754h14.128c1.417 0 2.233 1.284 2.576 2.752l0.829 3.559 0.477-0.96c2.461-0.153 2.68 1.375 0.076 2.694l0.423 0.693c1.712 1.88 1.552 5.205 1.285 9.848v1.887c0 0.473-0.363 0.86-0.805 0.86h-3.435c-0.443 0-0.805-0.387-0.805-0.86v-1.053h-16.237v1.053c0 0.473-0.362 0.86-0.805 0.86h-3.435c-0.443 0-0.805-0.387-0.805-0.86v-2.344c0-0.046 0.004-0.090 0.009-0.134-0.26-3.563-0.627-8.223 2.027-10.059zM9.26 18.942l-3.051-0.41c-0.721-0.086-0.914 0.239-0.668 0.902l0.33 0.855c0.106 0.22 0.247 0.38 0.412 0.491 0.193 0.127 0.425 0.19 0.684 0.202l2.721 0.023c0.658-0.002 0.942-0.283 0.736-0.927-0.169-0.605-0.556-0.985-1.163-1.136zM14.468 17.572h3.125c0.185 0 0.336 0.162 0.336 0.359s-0.152 0.359-0.336 0.359h-3.125c-0.184 0-0.336-0.162-0.336-0.359-0.002-0.197 0.15-0.359 0.336-0.359zM22.19 22.292h3.125c0.184 0 0.336 0.162 0.336 0.359s-0.152 0.359-0.336 0.359h-3.125c-0.184 0-0.336-0.162-0.336-0.359s0.15-0.359 0.336-0.359zM22.741 18.942l3.051-0.41c0.721-0.086 0.914 0.239 0.669 0.902l-0.33 0.855c-0.106 0.22-0.247 0.38-0.412 0.491-0.193 0.127-0.425 0.19-0.684 0.202l-2.721 0.023c-0.658-0.002-0.942-0.283-0.736-0.927 0.169-0.605 0.556-0.985 1.163-1.136zM6.662 22.292h3.125c0.184 0 0.336 0.162 0.336 0.359s-0.152 0.359-0.336 0.359h-3.125c-0.184 0-0.336-0.162-0.336-0.359s0.152-0.359 0.336-0.359zM6.84 12.567h18.842l-0.831-3.691c-0.228-1.124-0.883-2.098-1.964-2.098h-13.045c-1.079 0-1.632 0.999-1.964 2.098l-1.037 3.691z"></path>
</symbol>
<symbol id="icon-seat" viewBox="0 0 32 32">
<path fill="#244a5b" style="fill: var(--color1, #244a5b)" opacity="0.88" d="M26.667 27.351l-1.934 1.982-4.678-4.796h-6.737c-1.081 0-2.017-0.405-2.807-1.215s-1.185-1.769-1.185-2.878v-7.866c0-0.81 0.302-1.524 0.904-2.142s1.3-0.927 2.090-0.927h0.062c0.79 0 1.518 0.341 2.183 1.023l1.871 2.11c0.707 0.81 1.653 1.471 2.838 1.982s2.318 0.767 3.4 0.767v3.006c-2.578 0-5.032-1.002-7.361-3.006v5.052h4.616l6.737 6.907zM8.016 21.787c0 1.109 0.395 2.068 1.185 2.878s1.726 1.215 2.807 1.215h7.984v2.75h-7.984c-1.83 0-3.4-0.671-4.71-2.014s-1.965-2.952-1.965-4.828v-12.278h2.682v12.278zM10.136 7.335c-0.541-0.554-0.811-1.194-0.811-1.918s0.27-1.364 0.811-1.918c0.541-0.554 1.164-0.831 1.871-0.831s1.331 0.277 1.871 0.831c0.541 0.554 0.811 1.194 0.811 1.918s-0.27 1.364-0.811 1.918c-0.541 0.554-1.164 0.831-1.871 0.831s-1.331-0.277-1.871-0.831z"></path>
</symbol>
<symbol id="icon-can" viewBox="0 0 32 32">
<path fill="#244a5b" style="fill: var(--color1, #244a5b)" opacity="0.88" d="M24.727 4h-9.296c-0.255-0.001-0.507 0.047-0.743 0.14s-0.449 0.229-0.628 0.402l-1.253 1.19-1.255-1.19c-0.364-0.346-0.857-0.54-1.371-0.54s-1.007 0.194-1.371 0.54l-2.909 2.769c-0.363 0.346-0.568 0.816-0.568 1.305s0.204 0.959 0.568 1.305l1.25 1.194-1.25 1.193c-0.181 0.171-0.324 0.374-0.422 0.598s-0.147 0.464-0.147 0.707v12.541c0 0.49 0.204 0.959 0.568 1.305s0.857 0.541 1.371 0.541h17.455c0.514 0 1.008-0.195 1.371-0.541s0.568-0.816 0.568-1.305v-20.308c0-0.49-0.204-0.959-0.568-1.305s-0.857-0.541-1.371-0.541zM7.273 8.615l2.909-2.769 1.253 1.193-2.909 2.769-1.253-1.193zM22.4 22.646c0.102 0.073 0.188 0.164 0.253 0.268s0.108 0.22 0.126 0.34 0.011 0.242-0.021 0.36c-0.032 0.117-0.087 0.228-0.164 0.325s-0.172 0.179-0.282 0.241-0.231 0.102-0.357 0.119c-0.126 0.017-0.254 0.011-0.378-0.020s-0.239-0.083-0.341-0.156l-5.236-3.738-5.236 3.738c-0.206 0.147-0.464 0.21-0.719 0.175s-0.484-0.164-0.639-0.36c-0.154-0.196-0.221-0.442-0.184-0.684s0.172-0.461 0.378-0.608l4.784-3.415-4.784-3.415c-0.206-0.147-0.342-0.365-0.378-0.608s0.030-0.489 0.184-0.684c0.154-0.196 0.384-0.325 0.639-0.36s0.513 0.029 0.719 0.175l5.236 3.738 5.236-3.738c0.206-0.147 0.464-0.21 0.719-0.175s0.484 0.164 0.639 0.36c0.154 0.196 0.221 0.442 0.184 0.684s-0.172 0.461-0.378 0.608l-4.784 3.415 4.784 3.415zM21.818 9.538h-4.848c-0.257 0-0.504-0.097-0.686-0.27s-0.284-0.408-0.284-0.653c0-0.245 0.102-0.48 0.284-0.653s0.429-0.27 0.686-0.27h4.848c0.257 0 0.504 0.097 0.686 0.27s0.284 0.408 0.284 0.653c0 0.245-0.102 0.48-0.284 0.653s-0.429 0.27-0.686 0.27z"></path>
</symbol>
<symbol id="icon-AT" viewBox="0 0 32 32">
<path fill="none" stroke="#244a5b" style="stroke: var(--color1, #244a5b)" stroke-linejoin="round" stroke-linecap="round" stroke-miterlimit="4" stroke-width="2.6667" d="M5.111 9.778c-0.825 0-1.616-0.328-2.2-0.911s-0.911-1.375-0.911-2.2c0-0.825 0.328-1.616 0.911-2.2s1.375-0.911 2.2-0.911c0.825 0 1.616 0.328 2.2 0.911s0.911 1.375 0.911 2.2c0 0.825-0.328 1.616-0.911 2.2s-1.375 0.911-2.2 0.911zM5.111 9.778v12.444M16 9.778c-0.825 0-1.616-0.328-2.2-0.911s-0.911-1.375-0.911-2.2c0-0.825 0.328-1.616 0.911-2.2s1.375-0.911 2.2-0.911c0.825 0 1.616 0.328 2.2 0.911s0.911 1.375 0.911 2.2c0 0.825-0.328 1.616-0.911 2.2s-1.375 0.911-2.2 0.911zM16 9.778v12.444M26.889 9.778c-0.825 0-1.617-0.328-2.2-0.911s-0.911-1.375-0.911-2.2 0.328-1.616 0.911-2.2c0.583-0.583 1.375-0.911 2.2-0.911s1.616 0.328 2.2 0.911 0.911 1.375 0.911 2.2c0 0.825-0.328 1.616-0.911 2.2s-1.375 0.911-2.2 0.911zM26.889 9.778v3.111c0 0.825-0.328 1.617-0.911 2.2s-1.375 0.911-2.2 0.911h-18.667M5.111 22.222c0.825 0 1.616 0.328 2.2 0.911s0.911 1.375 0.911 2.2c0 0.825-0.328 1.616-0.911 2.2s-1.375 0.911-2.2 0.911c-0.825 0-1.616-0.328-2.2-0.911s-0.911-1.375-0.911-2.2c0-0.825 0.328-1.617 0.911-2.2s1.375-0.911 2.2-0.911zM16 22.222c0.825 0 1.616 0.328 2.2 0.911s0.911 1.375 0.911 2.2c0 0.825-0.328 1.616-0.911 2.2s-1.375 0.911-2.2 0.911c-0.825 0-1.616-0.328-2.2-0.911s-0.911-1.375-0.911-2.2c0-0.825 0.328-1.617 0.911-2.2s1.375-0.911 2.2-0.911z"></path>
</symbol>
<symbol id="icon-gas" viewBox="0 0 32 32">
<path fill="#244a5b" style="fill: var(--color1, #244a5b)" opacity="0.88" d="M19.6 25.6h1.2v2.4h-16.8v-2.4h1.2v-19.2c0-1.32 1.080-2.4 2.4-2.4h9.6c1.325 0 2.4 1.075 2.4 2.4v19.2zM7.6 6.4v7.2h9.6v-7.2h-9.6zM19.6 16h1.2c1.325 0 2.4 1.075 2.4 2.4v3.6c0 0.663 0.537 1.2 1.2 1.2s1.2-0.537 1.2-1.2v-6l-2.4-2.4v-2.4l-2.4-2.4 1.2-1.2 6 6v8.4c0 1.988-1.612 3.6-3.6 3.6s-3.6-1.612-3.6-3.6v-3.6h-1.2v-2.4z"></path>
</symbol>
</defs>
</svg>
